<svg xmlns="http://www.w3.org/2000/svg" viewBox="0 0 29.79 30"><defs><style>.cls-1{fill:#230a02;}.cls-2{fill:#007056;}</style></defs><g id="Layer_2" data-name="Layer 2"><g id="Layer_1-2" data-name="Layer 1"><path class="cls-1" d="M11.84,7.35l-1.33,0-1.65,0L7.22,7.28v.27a4.18,4.18,0,0,1,1.15.26A1.25,1.25,0,0,1,9,8.38a2.63,2.63,0,0,1,.27,1c0,.42.05.95.05,1.6v2.6a8.57,8.57,0,0,1,1.82-.49V11c0-.65,0-1.18,0-1.6a2.64,2.64,0,0,1,.25-1,1.19,1.19,0,0,1,.6-.57,3.77,3.77,0,0,1,1.12-.26V7.28Zm.25,14.55a1.24,1.24,0,0,1-.64-.57,2.63,2.63,0,0,1-.26-1c0-.42,0-.95,0-1.6V14.07a4.61,4.61,0,0,0-1.15.41,6.34,6.34,0,0,0-.67.42v3.8c0,.65,0,1.18-.05,1.6a2.63,2.63,0,0,1-.27,1,1.25,1.25,0,0,1-.61.57,3.59,3.59,0,0,1-1.13.25v.28l1.45-.07,1.48,0,1.53,0,1.54.07v-.28A3.81,3.81,0,0,1,12.09,21.9Z"/><path class="cls-1" d="M22.57,22.15v.28L21,22.36l-1.53,0-1.48,0-1.45.07v-.28a3.59,3.59,0,0,0,1.13-.25,1.32,1.32,0,0,0,.62-.57,2.82,2.82,0,0,0,.26-1c0-.42.05-.95.05-1.6V11c0-.65,0-1.18-.05-1.6a2.82,2.82,0,0,0-.26-1,1.32,1.32,0,0,0-.64-.57,4.09,4.09,0,0,0-1.15-.26V7.28l1.64.07,1.65,0,1.33,0,1.32-.07v.27a3.85,3.85,0,0,0-1.12.26,1.23,1.23,0,0,0-.6.57,2.64,2.64,0,0,0-.25,1c0,.42-.05.95-.05,1.6V18.7c0,.65,0,1.18.05,1.6a2.63,2.63,0,0,0,.26,1,1.24,1.24,0,0,0,.64.57A3.81,3.81,0,0,0,22.57,22.15Z"/><path class="cls-1" d="M14.84,0C4.64.4,0,8,0,14.85A14.67,14.67,0,0,0,6.57,27.27,7.76,7.76,0,0,1,4.93,25,14.22,14.22,0,0,1,.73,14.85C.73,5.53,8.06,1,14.85.72a14.13,14.13,0,0,1,1.64,28.17,10.41,10.41,0,0,1-1.15.41,9.1,9.1,0,0,1-1.9.3c.46,0,.93.09,1.41.11A14.86,14.86,0,1,0,14.84,0Z"/><path class="cls-2" d="M21.44,24.8A21.6,21.6,0,0,1,19.64,27a9.71,9.71,0,0,1-1.95,1.63,9.32,9.32,0,0,1-1.13.59,8.51,8.51,0,0,1-1.17.42,9.48,9.48,0,0,1-1.94.31c-.28,0-.56,0-.86,0a9,9,0,0,1-3.35-.63,8.84,8.84,0,0,1-2.78-1.74l0-.05A8.32,8.32,0,0,1,4.74,25.3l-.16-.36a8.66,8.66,0,0,1,0-6.87,8.16,8.16,0,0,1,1.88-2.68,8.69,8.69,0,0,1,2.78-1.75l.06,0a8.72,8.72,0,0,1,1.82-.48A8.93,8.93,0,0,1,12.59,13a15,15,0,0,1,1.83.11l.23,0,1.39.21.45.07,1.05.17c.36.06.72.1,1.07.13v4.05a6.77,6.77,0,0,0-.43-.8,6.94,6.94,0,0,0-1.35-1.63l-.34-.28a6.25,6.25,0,0,0-.82-.51c-.2-.1-.42-.2-.63-.28l-.39-.13a6.72,6.72,0,0,0-1.9-.25,7.48,7.48,0,0,0-1.63.17,4.8,4.8,0,0,0-1.14.42,4.29,4.29,0,0,0-.68.42,5.12,5.12,0,0,0-1.19,1.18,6.76,6.76,0,0,0-1,2.34,11.55,11.55,0,0,0-.33,2.8,9.34,9.34,0,0,0,.42,2.82,6.87,6.87,0,0,0,1.26,2.36A6.06,6.06,0,0,0,10.49,28a6.65,6.65,0,0,0,2.9.6,7.59,7.59,0,0,0,4.23-1.15,11.58,11.58,0,0,0,3.16-3.16Z"/></g></g></svg>