<svg xmlns="http://www.w3.org/2000/svg" viewBox="0 0 40.35 15"><defs><style>.cls-1{fill:#4f3b35;}.cls-2{fill:#007061;}</style></defs><title>Logo</title><g id="Layer_2" data-name="Layer 2"><g id="Layer_1-2" data-name="Layer 1"><path class="cls-1" d="M9.73,13.27v0l.06,0Zm0,0v0l.06,0Zm0,0v0l.06,0ZM.87,0V.88L1.59.83l.72,0c0,.2,0,.41-.05.66s0,.5,0,.77V3.44A6.76,6.76,0,0,1,4,2.31H4C4,2.15,4,2,4,1.85A1.31,1.31,0,0,1,4.32,1a1.38,1.38,0,0,1,1-.34V0ZM1.93,13.06,1.85,13a1.61,1.61,0,0,1-1,.29v.66H3A6.92,6.92,0,0,1,1.93,13.06Z"/><path class="cls-1" d="M12.82,12.48a5.23,5.23,0,0,1-.05.65l.72,0,.71,0v.88H10.6a13.07,13.07,0,0,0,2-1.37L12.12,12a11.71,11.71,0,0,1-1.26.76,1.53,1.53,0,0,0,.21-.72c0-.37,0-.78,0-1.25V7.2L4,7.28v4.6a5.63,5.63,0,0,1-1-1.7A6.07,6.07,0,0,1,2.64,8.1a8.47,8.47,0,0,1,.22-1.93,5.89,5.89,0,0,1,.66-1.75A3,3,0,0,1,4,3.77V6.4H11.1V2.23c0-.27,0-.52,0-.77s0-.46,0-.66l-.72,0L9.73.88V0H14.2V.66a1.34,1.34,0,0,0-1,.34,1.26,1.26,0,0,0-.32.85c0,.36,0,.78,0,1.25v8.46C12.83,11.92,12.83,12.22,12.82,12.48Z"/><path class="cls-2" d="M12.58,12.56a13.07,13.07,0,0,1-2,1.37,9.15,9.15,0,0,1-.94.47,8.29,8.29,0,0,1-3.22.6A6.1,6.1,0,0,1,4,14.48a7.87,7.87,0,0,1-1-.55,6.92,6.92,0,0,1-1.06-.87L1.85,13A6.92,6.92,0,0,1,.53,11,6.21,6.21,0,0,1,0,8.4,6.15,6.15,0,0,1,.53,5.84a6.49,6.49,0,0,1,1.4-2.1l.31-.3A6.76,6.76,0,0,1,4,2.31H4a5.93,5.93,0,0,1,2.45-.52A22.14,22.14,0,0,1,9,1.93c.7.1,1.4.21,2.11.35V6.4h-.17c-.11-.24-.23-.48-.35-.73a6.59,6.59,0,0,0-1-1.5A4.77,4.77,0,0,0,8.24,3.08a3.64,3.64,0,0,0-1.8-.44,3,3,0,0,0-1.75.5A3.3,3.3,0,0,0,4,3.77a3,3,0,0,0-.46.65,5.89,5.89,0,0,0-.66,1.75A8.47,8.47,0,0,0,2.64,8.1,6.07,6.07,0,0,0,3,10.18a5.63,5.63,0,0,0,1,1.7l0,.06a4.72,4.72,0,0,0,3.71,1.67,6.07,6.07,0,0,0,2-.32l.06,0,.24-.09c.28-.12.56-.24.83-.38A11.71,11.71,0,0,0,12.12,12Z"/><path class="cls-1" d="M16.52,7.79V7.53a.61.61,0,0,0,.42-.14A.55.55,0,0,0,17.06,7c0-.14,0-.31,0-.5V3.09c0-.11,0-.21,0-.31s0-.19,0-.27l-.29,0h-.29V2.19h1.8v.27a.57.57,0,0,0-.41.13.55.55,0,0,0-.13.35c0,.14,0,.31,0,.5V4.77h2.86V3.09c0-.11,0-.21,0-.31s0-.19,0-.27l-.29,0h-.29V2.19h1.8v.27a.57.57,0,0,0-.41.13.55.55,0,0,0-.13.35c0,.14,0,.31,0,.5V7.21c0,.1,0,.19,0,.26h.29l.28,0v.35h-1.8V7.53a.61.61,0,0,0,.42-.14A.55.55,0,0,0,20.62,7c0-.14,0-.31,0-.5V5.09l-2.86,0V7.21c0,.1,0,.19,0,.26H18l.29,0v.35Z"/><path class="cls-1" d="M22.62,7.55A.41.41,0,0,0,23,7.43a.61.61,0,0,0,.12-.35c0-.14,0-.31,0-.5V4.75a1.85,1.85,0,0,1,0-.24c0-.08,0-.17,0-.28l-.28,0h-.28V3.93a3.75,3.75,0,0,0,.54,0,1.11,1.11,0,0,0,.29-.09.49.49,0,0,0,.16-.1h.23V7.23l0,.26H24l.25,0v.33H22.62Zm.78-4.63a.41.41,0,0,1-.3-.14A.44.44,0,0,1,23,2.45a.49.49,0,0,1,.13-.34A.39.39,0,0,1,23.4,2a.37.37,0,0,1,.31.14.49.49,0,0,1,.13.34.45.45,0,0,1-.14.33A.41.41,0,0,1,23.4,2.92Z"/><path class="cls-1" d="M24.87,7.79V7.55a.41.41,0,0,0,.34-.12.61.61,0,0,0,.11-.35c0-.14,0-.31,0-.5V4.5l0-.27-.28,0H24.8V3.93a3.57,3.57,0,0,0,.54,0,.86.86,0,0,0,.26-.09.56.56,0,0,0,.15-.1H26a1,1,0,0,1,0,.19C26,4,26,4,26,4.14a2.24,2.24,0,0,1,.55-.35,1.77,1.77,0,0,1,.63-.13,1.38,1.38,0,0,1,.67.15,1,1,0,0,1,.42.39,2.46,2.46,0,0,1,.63-.38,1.65,1.65,0,0,1,.7-.16,1.22,1.22,0,0,1,1,.42A2.27,2.27,0,0,1,31,5.46V7.23l0,.26h.25l.25,0v.33H29.78V7.55a.4.4,0,0,0,.34-.12.61.61,0,0,0,.12-.35c0-.14,0-.31,0-.5V5.46a1.94,1.94,0,0,0-.22-1,.74.74,0,0,0-.69-.33,1.13,1.13,0,0,0-.5.11,1.6,1.6,0,0,0-.43.28,1.18,1.18,0,0,1,.06.27,1.62,1.62,0,0,1,0,.31c0,.31,0,.62,0,.94v.94c0,.11,0,.2,0,.29a1.22,1.22,0,0,1,0,.26h.26l.25,0v.33H27.32V7.55a.43.43,0,0,0,.34-.12.8.8,0,0,0,.11-.35c0-.14,0-.31,0-.5V5.46a2.17,2.17,0,0,0-.2-1,.72.72,0,0,0-.68-.35,1.33,1.33,0,0,0-.9.39v.2a1.69,1.69,0,0,1,0,.23V6.94a2.62,2.62,0,0,1,0,.29,2.46,2.46,0,0,1,0,.26h.25l.25,0v.33Z"/><path class="cls-1" d="M34.45,7.79c0-.09,0-.17,0-.24s0-.14,0-.22a2.12,2.12,0,0,1-.59.43,1.44,1.44,0,0,1-.67.16,1.23,1.23,0,0,1-.9-.28.87.87,0,0,1-.3-.67,1,1,0,0,1,.23-.64,1.79,1.79,0,0,1,.59-.44,3.32,3.32,0,0,1,.79-.25,3.43,3.43,0,0,1,.83-.08v-.5a2.87,2.87,0,0,0-.05-.52.7.7,0,0,0-.21-.41A.66.66,0,0,0,33.61,4a1.07,1.07,0,0,0-.48.09.6.6,0,0,0-.35.33.29.29,0,0,1,.08.14.47.47,0,0,1,0,.16.37.37,0,0,1-.08.22.3.3,0,0,1-.28.12.29.29,0,0,1-.25-.12.45.45,0,0,1-.09-.28.69.69,0,0,1,.2-.48A1.46,1.46,0,0,1,33,3.79a2.55,2.55,0,0,1,.81-.13,1.25,1.25,0,0,1,1,.36,1.61,1.61,0,0,1,.32,1.12v.6c0,.2,0,.4,0,.6v.6a2.26,2.26,0,0,1,0,.26c0,.08,0,.18,0,.29l.28,0h.29v.33Zm-.07-2a4,4,0,0,0-.57.07,2.45,2.45,0,0,0-.56.18,1.05,1.05,0,0,0-.4.32.64.64,0,0,0-.15.47.56.56,0,0,0,.2.44.64.64,0,0,0,.42.15,1.34,1.34,0,0,0,.58-.12A2.08,2.08,0,0,0,34.38,7a1.15,1.15,0,0,1,0-.19V6.33C34.38,6.18,34.38,6,34.38,5.83Z"/><path class="cls-1" d="M38.07,10a3.41,3.41,0,0,1-1.16-.16,1.38,1.38,0,0,1-.63-.41.76.76,0,0,1-.21-.51.81.81,0,0,1,.12-.44,1.26,1.26,0,0,1,.29-.32,1.17,1.17,0,0,1,.33-.2,1,1,0,0,1-.4-.24.53.53,0,0,1-.15-.39.78.78,0,0,1,.22-.53,1,1,0,0,1,.58-.3A1.48,1.48,0,0,1,36.47,6a1.23,1.23,0,0,1-.22-.73,1.41,1.41,0,0,1,.25-.84,1.67,1.67,0,0,1,.63-.55,1.8,1.8,0,0,1,.81-.2,2,2,0,0,1,.53.08A1.61,1.61,0,0,1,39,4a1.44,1.44,0,0,1,.23-.4,1.27,1.27,0,0,1,.34-.28,1,1,0,0,1,.4-.1.44.44,0,0,1,.32.11.4.4,0,0,1,.11.29.39.39,0,0,1,0,.14.35.35,0,0,1-.11.13.37.37,0,0,1-.43,0,.31.31,0,0,1-.11-.2.41.41,0,0,0-.31.19.89.89,0,0,0-.16.34,1.43,1.43,0,0,1,.31.42,1.21,1.21,0,0,1,.12.53,1.37,1.37,0,0,1-.24.8,1.57,1.57,0,0,1-.62.55,1.78,1.78,0,0,1-.83.19h-.27a1.06,1.06,0,0,0-.27,0,.76.76,0,0,0-.48.14.31.31,0,0,0-.13.34c.05.13.18.21.4.25a8,8,0,0,0,.88.07,4.9,4.9,0,0,1,1,.15,1.39,1.39,0,0,1,.68.37.94.94,0,0,1,.23.68,1,1,0,0,1-.17.58,1.52,1.52,0,0,1-.45.42,2.51,2.51,0,0,1-.63.25A2.88,2.88,0,0,1,38.07,10Zm0-.31a1.92,1.92,0,0,0,1.07-.26.71.71,0,0,0,.38-.6.51.51,0,0,0-.2-.45,1.12,1.12,0,0,0-.54-.22A4.62,4.62,0,0,0,38,8.06l-.43,0-.4,0a1.1,1.1,0,0,0-.33.35.88.88,0,0,0-.12.44.72.72,0,0,0,.37.63A1.81,1.81,0,0,0,38.07,9.65ZM38,6.37a.77.77,0,0,0,.49-.15.79.79,0,0,0,.3-.39,1.4,1.4,0,0,0,.1-.56,2,2,0,0,0-.1-.65,1.15,1.15,0,0,0-.31-.49.73.73,0,0,0-.52-.19.78.78,0,0,0-.67.33,1.35,1.35,0,0,0-.23.8,2,2,0,0,0,.11.68,1.08,1.08,0,0,0,.32.45A.85.85,0,0,0,38,6.37Z"/><path class="cls-1" d="M17.56,11.73a1.24,1.24,0,0,0-.1-.2,1.18,1.18,0,0,0-.11-.19,1.09,1.09,0,0,0-.17-.13.48.48,0,0,0-.22-.05.37.37,0,0,0-.21.06.5.5,0,0,0-.14.15.9.9,0,0,0-.08.21,1,1,0,0,0,0,.24.7.7,0,0,0,.05.25.94.94,0,0,0,.12.22.48.48,0,0,0,.2.14.51.51,0,0,0,.25.06.67.67,0,0,0,.28-.06.89.89,0,0,0,.25-.14l.06.07a1.4,1.4,0,0,1-.36.22.93.93,0,0,1-.39.08.82.82,0,0,1-.3-.07.81.81,0,0,1-.24-.17.85.85,0,0,1-.17-.25.7.7,0,0,1-.07-.31.71.71,0,0,1,.07-.32.85.85,0,0,1,.17-.25.81.81,0,0,1,.24-.17.82.82,0,0,1,.3-.07l.31,0,.28,0,.05.61Z"/><path class="cls-1" d="M19.62,11.05a.93.93,0,0,1,.34.06.88.88,0,0,1,.28.17.65.65,0,0,1,.17.25.88.88,0,0,1,.06.33.87.87,0,0,1-.06.32.78.78,0,0,1-.17.26,1.08,1.08,0,0,1-.28.16.93.93,0,0,1-.34.06,1,1,0,0,1-.36-.06,1.2,1.2,0,0,1-.27-.16.78.78,0,0,1-.17-.26.79.79,0,0,1,0-.65.65.65,0,0,1,.17-.25,1,1,0,0,1,.27-.17A1,1,0,0,1,19.62,11.05Zm-.08.12a.31.31,0,0,0-.19.06.5.5,0,0,0-.14.15.93.93,0,0,0-.08.2,1.79,1.79,0,0,0,0,.23,1.07,1.07,0,0,0,0,.25.66.66,0,0,0,.11.24.49.49,0,0,0,.18.17.53.53,0,0,0,.26.07.31.31,0,0,0,.19-.06.5.5,0,0,0,.14-.15.93.93,0,0,0,.08-.2,1.64,1.64,0,0,0,0-.23,1.13,1.13,0,0,0,0-.25.88.88,0,0,0-.11-.24.73.73,0,0,0-.18-.17A.53.53,0,0,0,19.54,11.17Z"/><path class="cls-1" d="M21.52,11.17l.58-.09v.21a1.81,1.81,0,0,1,.25-.16.56.56,0,0,1,.27-.08l.21,0a.51.51,0,0,1,.18.09.59.59,0,0,1,.13.18.68.68,0,0,1,.05.27v.7c0,.09,0,.14.07.17a.73.73,0,0,0,.21.07v0l-.25,0h-.45l-.16,0v0a.77.77,0,0,0,.2-.07.19.19,0,0,0,.06-.17v-.65a.48.48,0,0,0-.08-.31.32.32,0,0,0-.28-.11.36.36,0,0,0-.14,0l-.13.05a.39.39,0,0,0-.1.08.09.09,0,0,0,0,.07v.85c0,.09,0,.14.07.17a.9.9,0,0,0,.23.07v0l-.27,0h-.44l-.18,0v0a.57.57,0,0,0,.2-.07.18.18,0,0,0,.08-.17v-.93a.14.14,0,0,0-.09-.15.48.48,0,0,0-.18,0Z"/><path class="cls-1" d="M24.52,12.08h.06l.12.17a1.07,1.07,0,0,0,.16.14.78.78,0,0,0,.18.11.65.65,0,0,0,.2,0h.11l.1,0,.07-.06a.17.17,0,0,0,0-.1.23.23,0,0,0-.08-.17.78.78,0,0,0-.18-.11L25.05,12l-.23-.1a.55.55,0,0,1-.19-.14.32.32,0,0,1-.07-.22.42.42,0,0,1,.13-.33.49.49,0,0,1,.34-.12,1.35,1.35,0,0,1,.29,0,1,1,0,0,0,.3.05l0,.43h-.05a1.3,1.3,0,0,0-.1-.15.49.49,0,0,0-.13-.12.65.65,0,0,0-.16-.09.53.53,0,0,0-.17,0,.35.35,0,0,0-.18.05.15.15,0,0,0-.08.16.16.16,0,0,0,.07.14l.18.1.24.09a1.33,1.33,0,0,1,.24.1.9.9,0,0,1,.18.15.37.37,0,0,1,.07.23.53.53,0,0,1,0,.23.35.35,0,0,1-.13.14.48.48,0,0,1-.18.07.85.85,0,0,1-.23,0l-.18,0-.17,0-.15,0-.12,0Z"/><path class="cls-1" d="M27.39,12.1a.4.4,0,0,0,.08.26.36.36,0,0,0,.26.1.59.59,0,0,0,.25-.07.48.48,0,0,0,.19-.13v-.84s0-.07,0-.1a.16.16,0,0,0,0-.07.14.14,0,0,0-.1-.06.58.58,0,0,0-.17,0v0l.63,0v1.23a.26.26,0,0,0,.08.21.42.42,0,0,0,.22,0v0h-.31l-.3,0V12.4a1.83,1.83,0,0,1-.3.18.73.73,0,0,1-.33.08.52.52,0,0,1-.33-.11.43.43,0,0,1-.14-.34v-.82a.21.21,0,0,0-.06-.17.5.5,0,0,0-.23-.06v-.05l.61-.06Z"/><path class="cls-1" d="M29.71,12.56l.16,0a.22.22,0,0,0,.09-.07.34.34,0,0,0,0-.12c0-.05,0-.11,0-.19v-2A.42.42,0,0,0,30,9.92s-.11-.06-.23-.06v0l.59-.08v2.41a1,1,0,0,0,0,.19.21.21,0,0,0,0,.12.22.22,0,0,0,.09.07l.17,0v0l-.23,0h-.47l-.22,0Z"/><path class="cls-1" d="M31.53,11.24v-.06a.4.4,0,0,0,.22-.06.81.81,0,0,0,.16-.16,1.28,1.28,0,0,0,.11-.2c0-.08.06-.15.08-.22h.06v.58h.55v.12h-.55v1l0,.09a.15.15,0,0,0,.05.06.12.12,0,0,0,.09,0,.32.32,0,0,0,.2-.06,1,1,0,0,0,.17-.13l0,0-.13.12-.14.11a.28.28,0,0,1-.15.08.34.34,0,0,1-.18,0,.23.23,0,0,1-.22-.11.45.45,0,0,1-.06-.24V11.24Z"/><path class="cls-1" d="M33.93,11.59a.91.91,0,0,0,0-.17.21.21,0,0,0-.12-.2.58.58,0,0,0-.17-.05v-.05l.61,0v1.17a.63.63,0,0,0,0,.16.19.19,0,0,0,.05.09.18.18,0,0,0,.1,0l.15,0v0l-.28,0h-.46l-.19,0v0l.14,0a.13.13,0,0,0,.09,0,.13.13,0,0,0,0-.09.37.37,0,0,0,0-.16Zm.12-1.69a.18.18,0,0,1,.15.07.2.2,0,0,1,.06.15.25.25,0,0,1-.06.16.22.22,0,0,1-.3,0,.26.26,0,0,1-.07-.16A.21.21,0,0,1,33.9,10,.18.18,0,0,1,34.05,9.9Z"/><path class="cls-1" d="M35.5,11.17l.58-.09v.21l.25-.16a.56.56,0,0,1,.27-.08l.21,0a.51.51,0,0,1,.18.09.46.46,0,0,1,.13.18.54.54,0,0,1,.05.27v.7a.2.2,0,0,0,.07.17.73.73,0,0,0,.21.07v0l-.25,0h-.44l-.17,0v0a.66.66,0,0,0,.2-.07c.05,0,.07-.08.07-.17v-.65a.48.48,0,0,0-.09-.31.31.31,0,0,0-.28-.11.3.3,0,0,0-.13,0l-.14.05a.39.39,0,0,0-.1.08.13.13,0,0,0,0,.07v.85a.18.18,0,0,0,.08.17.79.79,0,0,0,.23.07v0l-.27,0h-.45l-.18,0v0a.73.73,0,0,0,.21-.07s.07-.08.07-.17v-.93a.14.14,0,0,0-.08-.15.58.58,0,0,0-.19,0Z"/><path class="cls-1" d="M40.06,11.44a.53.53,0,0,0,0-.13.05.05,0,0,0,0-.06l-.09,0-.08,0-.07,0a.75.75,0,0,1,.05.16.78.78,0,0,1,0,.16.45.45,0,0,1,0,.2.48.48,0,0,1-.12.16.52.52,0,0,1-.19.12,1,1,0,0,1-.26,0,.76.76,0,0,1-.37-.1l-.13.09a.2.2,0,0,0-.06.15.12.12,0,0,0,.06.12.67.67,0,0,0,.25,0h.47l.25,0a.47.47,0,0,1,.19.08.34.34,0,0,1,.13.16.58.58,0,0,1,.05.25.55.55,0,0,1-.09.32.63.63,0,0,1-.22.21.79.79,0,0,1-.3.12,1.17,1.17,0,0,1-.32,0l-.26,0-.24-.09a.44.44,0,0,1-.17-.16.45.45,0,0,1-.08-.26.43.43,0,0,1,.06-.22.52.52,0,0,1,.13-.17.32.32,0,0,1-.12-.26.45.45,0,0,1,.09-.28.52.52,0,0,1,.22-.16.4.4,0,0,1-.12-.16.66.66,0,0,1,0-.21.46.46,0,0,1,0-.21.34.34,0,0,1,.11-.17.76.76,0,0,1,.19-.12.85.85,0,0,1,.23,0l.27,0a.9.9,0,0,1,.24.12l.19-.08a.41.41,0,0,1,.19,0,.21.21,0,0,1,.13,0,.14.14,0,0,1,.05.09v.09a.15.15,0,0,1,0,.07Zm-.79,1.9h.2l.22-.05a.57.57,0,0,0,.18-.12A.21.21,0,0,0,40,13a.23.23,0,0,0-.13-.23.92.92,0,0,0-.41-.07h-.73a.56.56,0,0,0,0,.12.78.78,0,0,0,0,.14.29.29,0,0,0,.07.19.4.4,0,0,0,.16.13l.21.06A.82.82,0,0,0,39.27,13.34Zm-.33-1.76a.81.81,0,0,0,0,.16l.06.14a.28.28,0,0,0,.1.09.27.27,0,0,0,.28,0,.28.28,0,0,0,.1-.09.58.58,0,0,0,0-.14.41.41,0,0,0,0-.16.44.44,0,0,0,0-.16.5.5,0,0,0,0-.13.28.28,0,0,0-.1-.09.26.26,0,0,0-.28,0,.28.28,0,0,0-.1.09l-.06.13A.86.86,0,0,0,38.94,11.58Z"/><path class="cls-1" d="M16.52,7.79V7.53a.61.61,0,0,0,.42-.14A.55.55,0,0,0,17.06,7c0-.14,0-.31,0-.5V3.09c0-.11,0-.21,0-.31s0-.19,0-.27l-.29,0h-.29V2.19h1.8v.27a.57.57,0,0,0-.41.13.55.55,0,0,0-.13.35c0,.14,0,.31,0,.5V4.77h2.86V3.09c0-.11,0-.21,0-.31s0-.19,0-.27l-.29,0h-.29V2.19h1.8v.27a.57.57,0,0,0-.41.13.55.55,0,0,0-.13.35c0,.14,0,.31,0,.5V7.21c0,.1,0,.19,0,.26h.29l.28,0v.35h-1.8V7.53a.61.61,0,0,0,.42-.14A.55.55,0,0,0,20.62,7c0-.14,0-.31,0-.5V5.09l-2.86,0V7.21c0,.1,0,.19,0,.26H18l.29,0v.35Z"/><path class="cls-1" d="M22.62,7.55A.41.41,0,0,0,23,7.43a.61.61,0,0,0,.12-.35c0-.14,0-.31,0-.5V4.75a1.85,1.85,0,0,1,0-.24c0-.08,0-.17,0-.28l-.28,0h-.28V3.93a3.75,3.75,0,0,0,.54,0,1.11,1.11,0,0,0,.29-.09.49.49,0,0,0,.16-.1h.23V7.23l0,.26H24l.25,0v.33H22.62Zm.78-4.63a.41.41,0,0,1-.3-.14A.44.44,0,0,1,23,2.45a.49.49,0,0,1,.13-.34A.39.39,0,0,1,23.4,2a.37.37,0,0,1,.31.14.49.49,0,0,1,.13.34.45.45,0,0,1-.14.33A.41.41,0,0,1,23.4,2.92Z"/><path class="cls-1" d="M24.87,7.79V7.55a.41.41,0,0,0,.34-.12.61.61,0,0,0,.11-.35c0-.14,0-.31,0-.5V4.5l0-.27-.28,0H24.8V3.93a3.57,3.57,0,0,0,.54,0,.86.86,0,0,0,.26-.09.56.56,0,0,0,.15-.1H26a1,1,0,0,1,0,.19C26,4,26,4,26,4.14a2.24,2.24,0,0,1,.55-.35,1.77,1.77,0,0,1,.63-.13,1.38,1.38,0,0,1,.67.15,1,1,0,0,1,.42.39,2.46,2.46,0,0,1,.63-.38,1.65,1.65,0,0,1,.7-.16,1.22,1.22,0,0,1,1,.42A2.27,2.27,0,0,1,31,5.46V7.23l0,.26h.25l.25,0v.33H29.78V7.55a.4.4,0,0,0,.34-.12.61.61,0,0,0,.12-.35c0-.14,0-.31,0-.5V5.46a1.94,1.94,0,0,0-.22-1,.74.74,0,0,0-.69-.33,1.13,1.13,0,0,0-.5.11,1.6,1.6,0,0,0-.43.28,1.18,1.18,0,0,1,.06.27,1.62,1.62,0,0,1,0,.31c0,.31,0,.62,0,.94v.94c0,.11,0,.2,0,.29a1.22,1.22,0,0,1,0,.26h.26l.25,0v.33H27.32V7.55a.43.43,0,0,0,.34-.12.8.8,0,0,0,.11-.35c0-.14,0-.31,0-.5V5.46a2.17,2.17,0,0,0-.2-1,.72.72,0,0,0-.68-.35,1.33,1.33,0,0,0-.9.39v.2a1.69,1.69,0,0,1,0,.23V6.94a2.62,2.62,0,0,1,0,.29,2.46,2.46,0,0,1,0,.26h.25l.25,0v.33Z"/><path class="cls-1" d="M34.45,7.79c0-.09,0-.17,0-.24s0-.14,0-.22a2.12,2.12,0,0,1-.59.43,1.44,1.44,0,0,1-.67.16,1.23,1.23,0,0,1-.9-.28.87.87,0,0,1-.3-.67,1,1,0,0,1,.23-.64,1.79,1.79,0,0,1,.59-.44,3.32,3.32,0,0,1,.79-.25,3.43,3.43,0,0,1,.83-.08v-.5a2.87,2.87,0,0,0-.05-.52.7.7,0,0,0-.21-.41A.66.66,0,0,0,33.61,4a1.07,1.07,0,0,0-.48.09.6.6,0,0,0-.35.33.29.29,0,0,1,.08.14.47.47,0,0,1,0,.16.37.37,0,0,1-.08.22.3.3,0,0,1-.28.12.29.29,0,0,1-.25-.12.45.45,0,0,1-.09-.28.69.69,0,0,1,.2-.48A1.46,1.46,0,0,1,33,3.79a2.55,2.55,0,0,1,.81-.13,1.25,1.25,0,0,1,1,.36,1.61,1.61,0,0,1,.32,1.12v.6c0,.2,0,.4,0,.6v.6a2.26,2.26,0,0,1,0,.26c0,.08,0,.18,0,.29l.28,0h.29v.33Zm-.07-2a4,4,0,0,0-.57.07,2.45,2.45,0,0,0-.56.18,1.05,1.05,0,0,0-.4.32.64.64,0,0,0-.15.47.56.56,0,0,0,.2.44.64.64,0,0,0,.42.15,1.34,1.34,0,0,0,.58-.12A2.08,2.08,0,0,0,34.38,7a1.15,1.15,0,0,1,0-.19V6.33C34.38,6.18,34.38,6,34.38,5.83Z"/><path class="cls-1" d="M38.07,10a3.41,3.41,0,0,1-1.16-.16,1.38,1.38,0,0,1-.63-.41.76.76,0,0,1-.21-.51.81.81,0,0,1,.12-.44,1.26,1.26,0,0,1,.29-.32,1.17,1.17,0,0,1,.33-.2,1,1,0,0,1-.4-.24.53.53,0,0,1-.15-.39.78.78,0,0,1,.22-.53,1,1,0,0,1,.58-.3A1.48,1.48,0,0,1,36.47,6a1.23,1.23,0,0,1-.22-.73,1.41,1.41,0,0,1,.25-.84,1.67,1.67,0,0,1,.63-.55,1.8,1.8,0,0,1,.81-.2,2,2,0,0,1,.53.08A1.61,1.61,0,0,1,39,4a1.44,1.44,0,0,1,.23-.4,1.27,1.27,0,0,1,.34-.28,1,1,0,0,1,.4-.1.44.44,0,0,1,.32.11.4.4,0,0,1,.11.29.39.39,0,0,1,0,.14.35.35,0,0,1-.11.13.37.37,0,0,1-.43,0,.31.31,0,0,1-.11-.2.41.41,0,0,0-.31.19.89.89,0,0,0-.16.34,1.43,1.43,0,0,1,.31.42,1.21,1.21,0,0,1,.12.53,1.37,1.37,0,0,1-.24.8,1.57,1.57,0,0,1-.62.55,1.78,1.78,0,0,1-.83.19h-.27a1.06,1.06,0,0,0-.27,0,.76.76,0,0,0-.48.14.31.31,0,0,0-.13.34c.05.13.18.21.4.25a8,8,0,0,0,.88.07,4.9,4.9,0,0,1,1,.15,1.39,1.39,0,0,1,.68.37.94.94,0,0,1,.23.68,1,1,0,0,1-.17.58,1.52,1.52,0,0,1-.45.42,2.51,2.51,0,0,1-.63.25A2.88,2.88,0,0,1,38.07,10Zm0-.31a1.92,1.92,0,0,0,1.07-.26.71.71,0,0,0,.38-.6.51.51,0,0,0-.2-.45,1.12,1.12,0,0,0-.54-.22A4.62,4.62,0,0,0,38,8.06l-.43,0-.4,0a1.1,1.1,0,0,0-.33.35.88.88,0,0,0-.12.44.72.72,0,0,0,.37.63A1.81,1.81,0,0,0,38.07,9.65ZM38,6.37a.77.77,0,0,0,.49-.15.79.79,0,0,0,.3-.39,1.4,1.4,0,0,0,.1-.56,2,2,0,0,0-.1-.65,1.15,1.15,0,0,0-.31-.49.73.73,0,0,0-.52-.19.78.78,0,0,0-.67.33,1.35,1.35,0,0,0-.23.8,2,2,0,0,0,.11.68,1.08,1.08,0,0,0,.32.45A.85.85,0,0,0,38,6.37Z"/><path class="cls-1" d="M17.56,11.73a1.24,1.24,0,0,0-.1-.2,1.18,1.18,0,0,0-.11-.19,1.09,1.09,0,0,0-.17-.13.48.48,0,0,0-.22-.05.37.37,0,0,0-.21.06.5.5,0,0,0-.14.15.9.9,0,0,0-.08.21,1,1,0,0,0,0,.24.7.7,0,0,0,.05.25.94.94,0,0,0,.12.22.48.48,0,0,0,.2.14.51.51,0,0,0,.25.06.67.67,0,0,0,.28-.06.89.89,0,0,0,.25-.14l.06.07a1.4,1.4,0,0,1-.36.22.93.93,0,0,1-.39.08.82.82,0,0,1-.3-.07.81.81,0,0,1-.24-.17.85.85,0,0,1-.17-.25.7.7,0,0,1-.07-.31.71.71,0,0,1,.07-.32.85.85,0,0,1,.17-.25.81.81,0,0,1,.24-.17.82.82,0,0,1,.3-.07l.31,0,.28,0,.05.61Z"/><path class="cls-1" d="M19.62,11.05a.93.93,0,0,1,.34.06.88.88,0,0,1,.28.17.65.65,0,0,1,.17.25.88.88,0,0,1,.06.33.87.87,0,0,1-.06.32.78.78,0,0,1-.17.26,1.08,1.08,0,0,1-.28.16.93.93,0,0,1-.34.06,1,1,0,0,1-.36-.06,1.2,1.2,0,0,1-.27-.16.78.78,0,0,1-.17-.26.79.79,0,0,1,0-.65.65.65,0,0,1,.17-.25,1,1,0,0,1,.27-.17A1,1,0,0,1,19.62,11.05Zm-.08.12a.31.31,0,0,0-.19.06.5.5,0,0,0-.14.15.93.93,0,0,0-.08.2,1.79,1.79,0,0,0,0,.23,1.07,1.07,0,0,0,0,.25.66.66,0,0,0,.11.24.49.49,0,0,0,.18.17.53.53,0,0,0,.26.07.31.31,0,0,0,.19-.06.5.5,0,0,0,.14-.15.93.93,0,0,0,.08-.2,1.64,1.64,0,0,0,0-.23,1.13,1.13,0,0,0,0-.25.88.88,0,0,0-.11-.24.73.73,0,0,0-.18-.17A.53.53,0,0,0,19.54,11.17Z"/><path class="cls-1" d="M21.52,11.17l.58-.09v.21a1.81,1.81,0,0,1,.25-.16.56.56,0,0,1,.27-.08l.21,0a.51.51,0,0,1,.18.09.59.59,0,0,1,.13.18.68.68,0,0,1,.05.27v.7c0,.09,0,.14.07.17a.73.73,0,0,0,.21.07v0l-.25,0h-.45l-.16,0v0a.77.77,0,0,0,.2-.07.19.19,0,0,0,.06-.17v-.65a.48.48,0,0,0-.08-.31.32.32,0,0,0-.28-.11.36.36,0,0,0-.14,0l-.13.05a.39.39,0,0,0-.1.08.09.09,0,0,0,0,.07v.85c0,.09,0,.14.07.17a.9.9,0,0,0,.23.07v0l-.27,0h-.44l-.18,0v0a.57.57,0,0,0,.2-.07.18.18,0,0,0,.08-.17v-.93a.14.14,0,0,0-.09-.15.48.48,0,0,0-.18,0Z"/><path class="cls-1" d="M24.52,12.08h.06l.12.17a1.07,1.07,0,0,0,.16.14.78.78,0,0,0,.18.11.65.65,0,0,0,.2,0h.11l.1,0,.07-.06a.17.17,0,0,0,0-.1.23.23,0,0,0-.08-.17.78.78,0,0,0-.18-.11L25.05,12l-.23-.1a.55.55,0,0,1-.19-.14.32.32,0,0,1-.07-.22.42.42,0,0,1,.13-.33.49.49,0,0,1,.34-.12,1.35,1.35,0,0,1,.29,0,1,1,0,0,0,.3.05l0,.43h-.05a1.3,1.3,0,0,0-.1-.15.49.49,0,0,0-.13-.12.65.65,0,0,0-.16-.09.53.53,0,0,0-.17,0,.35.35,0,0,0-.18.05.15.15,0,0,0-.08.16.16.16,0,0,0,.07.14l.18.1.24.09a1.33,1.33,0,0,1,.24.1.9.9,0,0,1,.18.15.37.37,0,0,1,.07.23.53.53,0,0,1,0,.23.35.35,0,0,1-.13.14.48.48,0,0,1-.18.07.85.85,0,0,1-.23,0l-.18,0-.17,0-.15,0-.12,0Z"/><path class="cls-1" d="M27.39,12.1a.4.4,0,0,0,.08.26.36.36,0,0,0,.26.1.59.59,0,0,0,.25-.07.48.48,0,0,0,.19-.13v-.84s0-.07,0-.1a.16.16,0,0,0,0-.07.14.14,0,0,0-.1-.06.58.58,0,0,0-.17,0v0l.63,0v1.23a.26.26,0,0,0,.08.21.42.42,0,0,0,.22,0v0h-.31l-.3,0V12.4a1.83,1.83,0,0,1-.3.18.73.73,0,0,1-.33.08.52.52,0,0,1-.33-.11.43.43,0,0,1-.14-.34v-.82a.21.21,0,0,0-.06-.17.5.5,0,0,0-.23-.06v-.05l.61-.06Z"/><path class="cls-1" d="M29.71,12.56l.16,0a.22.22,0,0,0,.09-.07.34.34,0,0,0,0-.12c0-.05,0-.11,0-.19v-2A.42.42,0,0,0,30,9.92s-.11-.06-.23-.06v0l.59-.08v2.41a1,1,0,0,0,0,.19.21.21,0,0,0,0,.12.22.22,0,0,0,.09.07l.17,0v0l-.23,0h-.47l-.22,0Z"/><path class="cls-1" d="M31.53,11.24v-.06a.4.4,0,0,0,.22-.06.81.81,0,0,0,.16-.16,1.28,1.28,0,0,0,.11-.2c0-.08.06-.15.08-.22h.06v.58h.55v.12h-.55v1l0,.09a.15.15,0,0,0,.05.06.12.12,0,0,0,.09,0,.32.32,0,0,0,.2-.06,1,1,0,0,0,.17-.13l0,0-.13.12-.14.11a.28.28,0,0,1-.15.08.34.34,0,0,1-.18,0,.23.23,0,0,1-.22-.11.45.45,0,0,1-.06-.24V11.24Z"/><path class="cls-1" d="M33.93,11.59a.91.91,0,0,0,0-.17.21.21,0,0,0-.12-.2.58.58,0,0,0-.17-.05v-.05l.61,0v1.17a.63.63,0,0,0,0,.16.19.19,0,0,0,.05.09.18.18,0,0,0,.1,0l.15,0v0l-.28,0h-.46l-.19,0v0l.14,0a.13.13,0,0,0,.09,0,.13.13,0,0,0,0-.09.37.37,0,0,0,0-.16Zm.12-1.69a.18.18,0,0,1,.15.07.2.2,0,0,1,.06.15.25.25,0,0,1-.06.16.22.22,0,0,1-.3,0,.26.26,0,0,1-.07-.16A.21.21,0,0,1,33.9,10,.18.18,0,0,1,34.05,9.9Z"/><path class="cls-1" d="M35.5,11.17l.58-.09v.21l.25-.16a.56.56,0,0,1,.27-.08l.21,0a.51.51,0,0,1,.18.09.46.46,0,0,1,.13.18.54.54,0,0,1,.05.27v.7a.2.2,0,0,0,.07.17.73.73,0,0,0,.21.07v0l-.25,0h-.44l-.17,0v0a.66.66,0,0,0,.2-.07c.05,0,.07-.08.07-.17v-.65a.48.48,0,0,0-.09-.31.31.31,0,0,0-.28-.11.3.3,0,0,0-.13,0l-.14.05a.39.39,0,0,0-.1.08.13.13,0,0,0,0,.07v.85a.18.18,0,0,0,.08.17.79.79,0,0,0,.23.07v0l-.27,0h-.45l-.18,0v0a.73.73,0,0,0,.21-.07s.07-.08.07-.17v-.93a.14.14,0,0,0-.08-.15.58.58,0,0,0-.19,0Z"/><path class="cls-1" d="M40.06,11.44a.53.53,0,0,0,0-.13.05.05,0,0,0,0-.06l-.09,0-.08,0-.07,0a.75.75,0,0,1,.05.16.78.78,0,0,1,0,.16.45.45,0,0,1,0,.2.48.48,0,0,1-.12.16.52.52,0,0,1-.19.12,1,1,0,0,1-.26,0,.76.76,0,0,1-.37-.1l-.13.09a.2.2,0,0,0-.06.15.12.12,0,0,0,.06.12.67.67,0,0,0,.25,0h.47l.25,0a.47.47,0,0,1,.19.08.34.34,0,0,1,.13.16.58.58,0,0,1,.05.25.55.55,0,0,1-.09.32.63.63,0,0,1-.22.21.79.79,0,0,1-.3.12,1.17,1.17,0,0,1-.32,0l-.26,0-.24-.09a.44.44,0,0,1-.17-.16.45.45,0,0,1-.08-.26.43.43,0,0,1,.06-.22.52.52,0,0,1,.13-.17.32.32,0,0,1-.12-.26.45.45,0,0,1,.09-.28.52.52,0,0,1,.22-.16.4.4,0,0,1-.12-.16.66.66,0,0,1,0-.21.46.46,0,0,1,0-.21.34.34,0,0,1,.11-.17.76.76,0,0,1,.19-.12.85.85,0,0,1,.23,0l.27,0a.9.9,0,0,1,.24.12l.19-.08a.41.41,0,0,1,.19,0,.21.21,0,0,1,.13,0,.14.14,0,0,1,.05.09v.09a.15.15,0,0,1,0,.07Zm-.79,1.9h.2l.22-.05a.57.57,0,0,0,.18-.12A.21.21,0,0,0,40,13a.23.23,0,0,0-.13-.23.92.92,0,0,0-.41-.07h-.73a.56.56,0,0,0,0,.12.78.78,0,0,0,0,.14.29.29,0,0,0,.07.19.4.4,0,0,0,.16.13l.21.06A.82.82,0,0,0,39.27,13.34Zm-.33-1.76a.81.81,0,0,0,0,.16l.06.14a.28.28,0,0,0,.1.09.27.27,0,0,0,.28,0,.28.28,0,0,0,.1-.09.58.58,0,0,0,0-.14.41.41,0,0,0,0-.16.44.44,0,0,0,0-.16.5.5,0,0,0,0-.13.28.28,0,0,0-.1-.09.26.26,0,0,0-.28,0,.28.28,0,0,0-.1.09l-.06.13A.86.86,0,0,0,38.94,11.58Z"/></g></g></svg>