<svg xmlns="http://www.w3.org/2000/svg" viewBox="0 0 65.53 66"><defs><style>.cls-1{fill:#230a02;}.cls-2{fill:#007056;}</style></defs><g id="Layer_2" data-name="Layer 2"><g id="Layer_1-2" data-name="Layer 1"><path class="cls-1" d="M26.05,16.16c-1,0-1.95.05-2.93.05-1.25,0-2.45,0-3.62-.05s-2.38-.08-3.62-.15v.61a8.51,8.51,0,0,1,2.53.56,2.83,2.83,0,0,1,1.4,1.26,5.87,5.87,0,0,1,.58,2.26c.07.93.11,2.1.11,3.52v5.72a18.89,18.89,0,0,1,4-1.07V24.22c0-1.42,0-2.59.11-3.52a6.09,6.09,0,0,1,.55-2.26,2.74,2.74,0,0,1,1.34-1.26,7.78,7.78,0,0,1,2.44-.56V16C28,16.08,27,16.13,26.05,16.16Zm.54,32a2.79,2.79,0,0,1-1.4-1.26,5.7,5.7,0,0,1-.58-2.26c-.07-.92-.11-2.1-.11-3.52V31a10.38,10.38,0,0,0-2.51.91,12.39,12.39,0,0,0-1.49.92v8.36c0,1.42,0,2.6-.11,3.52a5.87,5.87,0,0,1-.58,2.26,2.82,2.82,0,0,1-1.36,1.26,7.93,7.93,0,0,1-2.48.56v.61c1.06-.07,2.13-.12,3.2-.15s2.14-.05,3.24-.05,2.25,0,3.38.05,2.25.08,3.37.15v-.61A8.59,8.59,0,0,1,26.59,48.18Z"/><path class="cls-1" d="M49.65,48.74v.61c-1.13-.07-2.25-.12-3.38-.15s-2.25-.05-3.38-.05-2.18,0-3.24.05-2.13.08-3.2.15v-.61a7.93,7.93,0,0,0,2.49-.56,2.91,2.91,0,0,0,1.36-1.26,5.7,5.7,0,0,0,.57-2.26c.07-.92.11-2.1.11-3.52V24.22c0-1.42,0-2.59-.11-3.52a5.7,5.7,0,0,0-.57-2.26,2.87,2.87,0,0,0-1.4-1.26,8.59,8.59,0,0,0-2.54-.56V16c1.25.07,2.45.12,3.62.15s2.38.05,3.62.05c1,0,2,0,2.94-.05s1.94-.08,2.88-.15v.61a7.85,7.85,0,0,0-2.44.56,2.72,2.72,0,0,0-1.33,1.26,6.07,6.07,0,0,0-.56,2.26c-.07.93-.11,2.1-.11,3.52V41.14c0,1.42,0,2.6.11,3.52a5.87,5.87,0,0,0,.58,2.26,2.83,2.83,0,0,0,1.4,1.26A8.59,8.59,0,0,0,49.65,48.74Z"/><path class="cls-1" d="M32.65,0C10.22.88,0,17.56,0,32.68,0,42.83,4.61,53.69,14.45,60a17.54,17.54,0,0,1-3.61-4.91A31.28,31.28,0,0,1,1.6,32.68c0-20.52,16.13-30.5,31.08-31.09a31.08,31.08,0,0,1,3.59,62,18.63,18.63,0,0,1-2.51.89,21.09,21.09,0,0,1-4.19.68c1,.11,2.05.18,3.11.23A32.68,32.68,0,1,0,32.65,0Z"/><path class="cls-2" d="M47.17,54.57a48.54,48.54,0,0,1-4,4.88A21.88,21.88,0,0,1,38.92,63a17.79,17.79,0,0,1-2.48,1.31,18.31,18.31,0,0,1-2.58.91,20.47,20.47,0,0,1-4.28.7c-.6,0-1.23.06-1.88.06a19.91,19.91,0,0,1-7.38-1.38,19,19,0,0,1-6.1-3.84l-.1-.1a17.8,17.8,0,0,1-3.68-5c-.13-.25-.25-.51-.37-.78a18.62,18.62,0,0,1,4.15-21A19.05,19.05,0,0,1,20.32,30l.14-.05a18.89,18.89,0,0,1,4-1.07,20.33,20.33,0,0,1,3.24-.26,29.54,29.54,0,0,1,4,.25l.51.07c1.06.14,2.08.29,3.07.44l1,.16,2.33.38a21.3,21.3,0,0,0,2.34.28v8.91A17.43,17.43,0,0,0,40,37.35a15.24,15.24,0,0,0-3-3.58c-.25-.21-.5-.42-.76-.61A11.86,11.86,0,0,0,34.47,32a14.63,14.63,0,0,0-1.39-.62c-.28-.1-.57-.2-.86-.28a14.87,14.87,0,0,0-4.17-.55,15.51,15.51,0,0,0-3.59.38,10.38,10.38,0,0,0-2.51.91,12.39,12.39,0,0,0-1.49.92,11.15,11.15,0,0,0-2.61,2.61,14.73,14.73,0,0,0-2.32,5.14,25.28,25.28,0,0,0-.73,6.18,20.55,20.55,0,0,0,.93,6.2,15.2,15.2,0,0,0,2.76,5.17,13.52,13.52,0,0,0,4.59,3.55A14.45,14.45,0,0,0,29.45,63a16.7,16.7,0,0,0,9.32-2.54,25.15,25.15,0,0,0,6.95-6.93Z"/></g></g></svg>